<svg width="18" height="21" viewBox="0 0 18 21" fill="none" xmlns="http://www.w3.org/2000/svg">
<path d="M12.7485 13.1955L9.00019 16.9438L5.25187 13.1955C3.89446 13.2514 2.61113 13.8295 1.66982 14.8091C0.728505 15.7887 0.201987 17.0941 0.200195 18.4526L0.200195 18.8332C0.200447 19.3332 0.399187 19.8126 0.752747 20.1662C1.10631 20.5198 1.58576 20.7185 2.08577 20.7188H15.9146C16.1625 20.7186 16.408 20.6696 16.6369 20.5746C16.8659 20.4796 17.0739 20.3403 17.249 20.1649C17.4241 19.9894 17.5629 19.7811 17.6575 19.552C17.7521 19.3228 17.8006 19.0773 17.8002 18.8294V18.4488C17.7982 17.0904 17.2715 15.7853 16.3302 14.8059C15.389 13.8265 14.1058 13.2485 12.7485 13.1926V13.1955ZM0.734855 3.73618L0.986011 3.79517V6.08887C0.846283 6.16542 0.729166 6.2774 0.646433 6.41356C0.563701 6.54971 0.518267 6.70525 0.5147 6.86453C0.511132 7.02381 0.549557 7.18122 0.62611 7.32095C0.702664 7.46067 0.81465 7.57778 0.950811 7.66051L0.338141 10.1083C0.271547 10.3795 0.420909 10.6582 0.636866 10.6582H2.27795C2.4939 10.6582 2.64327 10.3795 2.57667 10.1083L1.964 7.66051C2.10016 7.57778 2.21215 7.46067 2.2887 7.32095C2.36526 7.18122 2.40368 7.02381 2.40011 6.86453C2.39655 6.70525 2.35111 6.54971 2.26838 6.41356C2.18565 6.2774 2.06853 6.16542 1.9288 6.08887V4.02635L4.52123 4.65138C4.18178 5.32886 4.00013 6.0744 3.98989 6.83209C3.97966 7.58978 4.14111 8.33996 4.46214 9.02635C4.78318 9.71275 5.25545 10.3176 5.84355 10.7954C6.43165 11.2732 7.12031 11.6117 7.85789 11.7855C8.59546 11.9592 9.3628 11.9637 10.1024 11.7986C10.8419 11.6335 11.5345 11.3031 12.1281 10.8322C12.7218 10.3613 13.2011 9.76204 13.5302 9.07945C13.8592 8.39686 14.0294 7.64862 14.0281 6.89086C14.0241 6.11144 13.8357 5.34402 13.4782 4.65138L17.2617 3.73999C17.4101 3.71815 17.5457 3.64367 17.6438 3.53014C17.7418 3.41661 17.7958 3.27161 17.7958 3.12161C17.7958 2.97161 17.7418 2.82661 17.6438 2.71308C17.5457 2.59955 17.4101 2.52507 17.2617 2.50323L9.7822 0.690908C9.26958 0.569177 8.73557 0.569177 8.22294 0.690908L0.734855 2.49467C0.589447 2.52027 0.457713 2.5963 0.362796 2.70939C0.267879 2.82248 0.21585 2.9654 0.21585 3.11305C0.21585 3.26069 0.267879 3.40361 0.362796 3.51671C0.457713 3.6298 0.589447 3.70582 0.734855 3.73143V3.73618Z" fill="#BDBDBD"/>
</svg>
